<?xml version="1.0" encoding="UTF-8" standalone="no"?>
<!-- Created with Inkscape (http://www.inkscape.org/) -->

<svg
   width="470mm"
   height="470mm"
   viewBox="0 0 470 470.00001"
   version="1.1"
   id="svg1"
   xml:space="preserve"
   sodipodi:docname="Kothe_v1.svg"
   inkscape:version="1.4.4 (dcaf3e7d9e, 2026-05-05)"
   xmlns:inkscape="http://www.inkscape.org/namespaces/inkscape"
   xmlns:sodipodi="http://sodipodi.sourceforge.net/DTD/sodipodi-0.dtd"
   xmlns="http://www.w3.org/2000/svg"
   xmlns:svg="http://www.w3.org/2000/svg"><sodipodi:namedview
     id="namedview1"
     pagecolor="#ffffff"
     bordercolor="#000000"
     borderopacity="0.25"
     inkscape:showpageshadow="2"
     inkscape:pageopacity="0.0"
     inkscape:pagecheckerboard="0"
     inkscape:deskcolor="#d1d1d1"
     inkscape:document-units="mm"
     inkscape:zoom="14.826976"
     inkscape:cx="201.1199"
     inkscape:cy="1117.8274"
     inkscape:window-width="2560"
     inkscape:window-height="1375"
     inkscape:window-x="0"
     inkscape:window-y="0"
     inkscape:window-maximized="1"
     inkscape:current-layer="layer2" /><defs
     id="defs1" /><g
     id="layer2"
     transform="translate(-2.9597122,-10.990317)"
     style="stroke-width:3;stroke-dasharray:none;fill:#aeaeae;fill-opacity:1"><path
       id="path4"
       style="opacity:1;fill:#aeaeae;fill-opacity:1;stroke:#000000;stroke-width:3;stroke-dasharray:none"
       d="m 304.10466,308.47851 c -12.32314,-16.94436 -23.76875,-46.60531 -34.37022,-83.05953 -8.87733,-30.52557 -17.16276,-65.81446 -24.8759,-102.38882 m 41.33507,4.77857 c 14.4512,43.96239 48.00659,77.88043 80.24808,109.64577 19.81905,18.78324 40.58578,36.58362 62.30777,53.13305 -70.31929,21.01021 -144.66113,18.68882 -217.28666,19.66924 -54.5163,-0.18982 -109.10327,-1.77719 -163.356778,-7.40376 43.110763,-23.10474 74.356938,-62.78878 101.780058,-102.30047 16.66741,-24.78426 31.38545,-50.84388 44.69275,-77.57085 m 49.2992,-3.00924 c 14.10519,2.61209 28.21039,5.22418 42.31558,7.83626 -0.29726,13.61637 -0.59453,27.23273 -0.89179,40.84909 -13.48109,-15.20922 -26.96219,-30.41844 -40.44328,-45.62766 -13.08118,17.50291 -26.16235,35.00582 -39.24353,52.50872 -3.67873,-17.51906 -7.35745,-35.03811 -11.03618,-52.55717 z"
       sodipodi:nodetypes="csccccccccccccccc" /><path
       style="opacity:1;fill:#aeaeae;stroke:#000000;stroke-width:3;stroke-dasharray:none;fill-opacity:1"
       d="m 304.24475,339.8616 c -84.01125,2.91027 -168.21819,0.87239 -251.979289,-6.2627 -0.04264,-8.75825 -0.08528,-17.51651 -0.127926,-26.27476 83.747415,8.83611 168.175925,8.0869 252.251175,5.95458 -0.048,8.86096 -0.096,17.72192 -0.14396,26.58288 z"
       id="path6" /><path
       style="opacity:1;fill:#aeaeae;stroke:#000000;stroke-width:3;stroke-dasharray:none;fill-opacity:1"
       d="m 308.99712,339.98925 c 39.75784,-1.78494 79.63112,-6.8916 117.8349,-18.33463 -0.0758,-8.77537 -0.15157,-17.55075 -0.22735,-26.32612 -38.13084,11.89139 -78.22819,16.11826 -117.99301,17.66003 0.12849,9.00024 0.25697,18.00048 0.38546,27.00072 z"
       id="path7" /><path
       style="opacity:1;fill:none;stroke:#000000;stroke-width:3;stroke-dasharray:none;fill-opacity:1"
       d="m 284.716,168.03489 c 37.73563,56.1631 79.12697,112.28573 135.33416,151.31436 6.62599,4.27677 13.45216,8.3926 20.86785,11.15685"
       id="path9" /><path
       style="opacity:1;fill:none;stroke:#000000;stroke-width:3;stroke-dasharray:none;fill-opacity:1"
       d="m 304.10466,308.45802 c 7.67787,15.71565 21.27913,28.02344 36.24852,36.67569"
       id="path10" /><path
       style="opacity:1;fill:none;stroke:#000000;stroke-width:3;stroke-dasharray:none;fill-opacity:1"
       d="M 206.0926,174.56511 C 182.30014,238.00994 141.80168,294.02853 98.997586,345.91734"
       id="path11" /><path
       style="opacity:1;fill:#aeaeae;stroke:#000000;stroke-width:3;stroke-dasharray:none;fill-opacity:1"
       d="m 428.96922,290.73404 c 12.60558,12.60285 27.41984,22.86916 42.94309,31.53779"
       id="path12" /><path
       style="opacity:1;fill:#aeaeae;fill-opacity:1;stroke:#000000;stroke-width:3;stroke-dasharray:none"
       d="M 48.106022,302.85303 C 33.906502,315.40125 19.037683,327.03307 3.2292278,337.48729"
       id="path13"
       sodipodi:nodetypes="cc" /></g></svg>
